<svg height="512" viewBox="0 0 64 64" width="512" xmlns="http://www.w3.org/2000/svg"><g id="Blue"><path d="m14 32h2v5h-2z" fill="#4f83d1"/><g fill="#7cb8eb"><path d="m53 28 4 2v4l-4 2z"/><path d="m57 30h4v4h-4z"/><path d="m44 28 8-8h3a2 2 0 0 1 2 2v8l-4-2z"/></g><path d="m29 28-14-4-12 8 16 1 10 3h24v-8z" fill="#cdeef6"/><circle cx="15" cy="38" fill="#7cb8eb" r="2"/><path d="m47 31h6v2h-6z" fill="#4f83d1"/><path d="m29 28 4 4h10v-4z" fill="#7cb8eb"/><path d="m9 28 10 1 3-3-7-2z" fill="#fff"/><path d="m46 40h-10c-1.1 0-4-.9-4-2 0-1.1 2.9-2 4-2h10z" fill="#7cb8eb"/><path d="m42 36h4v4h-4z" fill="#7cb8eb"/><path d="m40 40 3 4h3v-4z" fill="#7cb8eb"/><path d="m26 30h2v2h-2z" fill="#4f83d1"/><path d="m48 24 4-4h3a2 2 0 0 1 2 2v2z" fill="#7cb8eb"/><path d="m61 29h-3v-7a3 3 0 0 0 -3-3h-3a1 1 0 0 0 -.707.293l-7.707 7.707h-14.446l-13.866-3.962a1.009 1.009 0 0 0 -.829.13l-12 8a1 1 0 0 0 .492 1.832l11.063.69v1.494a3 3 0 1 0 2 0v-1.369l2.823.176 9.89 2.967a1.027 1.027 0 0 0 .287.042h2.335a1.726 1.726 0 0 0 -.335 1c0 2.064 3.836 3 5 3h3.5l2.7 3.6a1 1 0 0 0 .8.4h3a1 1 0 0 0 1-1v-7h6a.991.991 0 0 0 .443-.114l3.793-1.886h3.764a1 1 0 0 0 1-1v-4a1 1 0 0 0 -1-1zm-19 0v2h-8.586l-2-2zm-26.83-3.911 4.921 1.411-1.463 1.463-6.749-.675zm-.17 13.911a1 1 0 1 1 1-1 1 1 0 0 1 -1 1zm26 0h-5a6.192 6.192 0 0 1 -2.915-1 6.192 6.192 0 0 1 2.915-1h5zm4 4h-1.5l-1.5-2h3zm0-4h-2v-2h2zm7-8h-5v2h5v2h-22.854l-9.859-2.958a1.061 1.061 0 0 0 -.225-.04l-13.04-.815 3.234-2.156 9.644.969h.1a1 1 0 0 0 .707-.293l2.584-2.584 6.186 1.768 3.816 3.816a1 1 0 0 0 .707.293h10a1 1 0 0 0 1-1v-3h8zm4 2.382-2 1v-4.764l2 1zm0-5-2.557-1.268a.991.991 0 0 0 -.443-.114h-6.586l2-2h7.586zm0-5.382h-5.586l2-2h2.586a1 1 0 0 1 1 1zm4 10h-2v-2h2z" fill="#4f83d1"/><path d="m26 30h2v2h-2z" fill="#4f83d1"/></g></svg>